<?xml version="1.0" encoding="utf-8"?>
<!-- Generator: Adobe Illustrator 17.1.0, SVG Export Plug-In . SVG Version: 6.00 Build 0)  -->
<!DOCTYPE svg PUBLIC "-//W3C//DTD SVG 1.1//EN" "http://www.w3.org/Graphics/SVG/1.1/DTD/svg11.dtd">
<svg version="1.1" id="レイヤー_1" xmlns="http://www.w3.org/2000/svg" xmlns:xlink="http://www.w3.org/1999/xlink" x="0px"
	 y="0px" viewBox="0 0 595 842" enable-background="new 0 0 595 842" xml:space="preserve">
<path fill="#231715" d="M300.6,518c-17.8,0-34.3-8.9-42.9-17.7c-4.9-5.1-7.4-10.2-7.3-14.9c0.2-6.4,3.4-11.2,8.4-13.2
	c-0.3-0.1-0.7-0.2-1-0.4c-13.6-5.3-29.4-28.9-30.3-41.6c-0.5-7.2,2.3-13.3,7.1-16.5c-1.3-1.2-3-2.3-5-2.8
	c-7.3-1.8-10.6-5.8-12.1-8.8c-2.3-4.7-2-10.4,0.7-16.5c0.6-1.4,1.9-2.3,3.4-2.4c1.5-0.1,2.9,0.6,3.7,1.9c2.2,3.6,4.6,4.2,5.2,3.4
	c1-1.1,1-1.9,1-2.5c-0.1-0.9-0.9-3.4-6-7.3c-5.7-4.2-8.9-9.9-9-16.1c-0.1-6.7,3.5-13.3,10.2-18.5c1.2-1,2.9-1.1,4.3-0.4
	c1.4,0.7,2.2,2.2,2.1,3.8c-0.5,7.6,1.4,10.6,2.2,11.5c0.7,0.8,1.6,1.1,2.7,1c0.4-2.5,1.7-4.9,3.8-7.2c-0.6-1.8-1.6-3.8-2.9-5.9
	c-6.2-9.7-4.5-21.6,4-28.4c2.7-2.2,4.3-5.3,4.2-8.6c-0.1-3.4-1.8-6.5-4.8-8.8c-1.4-1-2-2.9-1.4-4.6c0.6-1.7,2.2-2.7,4-2.7
	c5.4,0.3,19.7,1,20.6,15.4c0.1,1.6,0.6,5.4,3,5.4c0.4,0,0.8-0.1,1.2-0.2c0.8-0.3,1.2-0.7,1.3-1.1c0.3-1.1-0.3-3.5-3-7.2
	c-6.6-9.1-3.9-20.4,6.9-29.3c1.5-1.2,3.2-3.1,3.1-4.8c-0.1-1.8-2.1-4-5.5-6.1c-1.5-0.9-2.2-2.8-1.7-4.5c0.5-1.7,2.1-3,3.9-2.9
	c13.5,0.1,20.3,4.9,23.6,8.9c3.1,3.7,4.4,8.3,3.6,12.6c-0.4,2.3,0.1,4.6,1.3,6.1c0.4,0.5,1.3,1.3,2.4,1.2c1.1-0.1,3.5-1.5,4.3-3.9
	c1-2.9-0.8-6.7-5-10.6c-1.3-1.2-1.6-3.2-0.8-4.7c0.8-1.6,2.6-2.4,4.3-2.1c13.8,2.7,27,13.2,31.9,24.9c4.7,0.3,9.3,1.1,13.7,2.3
	c-0.3-1.1-1.1-2.7-2.8-5c-1-1.3-1.1-3.2-0.2-4.6c0.9-1.4,2.6-2.1,4.2-1.8c7.1,1.5,12.2,4.6,15.1,9.2c2.1,3.3,3,7.2,2.7,11.4
	c6.4,0.4,15.5,0.4,22,0.4c4,0,7.9,0,11.6,0c3.3,0,6.4,0,9.1,0c8.3,0,10.4,0.1,11.5,0.4c1.9,0.5,3.9,2.2,4,5.4
	c0.1,6.3-7.4,17.3-22,21.7c-2.5,0.7-5.1,1.1-7.7,1.1l0,0c-2,0-4.2-0.2-6.3-0.7c1.3,2.7,2.4,5.5,3.4,8.4
	c10.1,28.6,12.6,92.9-18.1,115.7c-8.1,28.1-36.7,53.8-68.7,61.4C308.4,517.6,304.5,518,300.6,518z M264.4,479.2
	c-3.7,0-5.8,2.2-5.9,6.5c-0.1,2.3,1.8,5.7,5,9c7.4,7.6,21.7,15.3,37.1,15.3c3.3,0,6.5-0.4,9.5-1.1c29.3-6.9,56.5-31.5,63.2-57
	c0.2-0.9,0.8-1.7,1.6-2.3c12.2-8.4,20-26.4,22.1-50.8c1.9-22.4-1.6-44.6-5.8-56.6c-2.1-5.8-4.6-11.2-7.6-16
	c-0.9-1.5-0.8-3.5,0.4-4.8c1.2-1.3,3.1-1.7,4.7-1c4.6,2.2,9,3.3,12.9,3.3l0,0c1.9,0,3.7-0.3,5.4-0.8c9.5-2.8,14.1-8.6,15.7-11.8
	c-1.5,0-3.7-0.1-6.9-0.1c-2.7,0-5.8,0-9.1,0c-3.7,0-7.7,0-11.7,0c-7.1,0-17.3-0.1-24-0.5c-0.8-0.1-1.5-0.3-2.1-0.8
	c-0.7-0.6-1.6-1.2-2.5-1.8c-1.3-0.9-2-2.6-1.7-4.2c0.4-1.8,0.8-5.2-1.1-8.2c-0.4-0.6-0.9-1.2-1.5-1.8c0.1,2.3-0.4,4.7-2.2,7
	c-1.1,1.4-2.9,2-4.6,1.4c-5.4-2-11.2-3.1-17.2-3.3l-0.8,0c-1.7,0-3.2-1.2-3.7-2.8c-2.1-7-8.5-13.8-16.1-18.1c1,3.5,0.5,6.3-0.1,8.1
	c-1.9,5.5-7.1,8.9-11.1,9.3c-3.5,0.4-6.9-1.1-9.3-4.1c-2.7-3.3-3.9-8-3-12.7c0.4-1.9-0.3-4.2-1.9-6c-1.1-1.3-3.1-3.1-6.9-4.4
	c0.5,1.2,0.7,2.4,0.8,3.4c0.2,2.9-0.7,7.2-6,11.6c-10.3,8.5-7.9,15.2-5.5,18.5c3.9,5.5,5.3,10.3,4.1,14.2c-0.9,2.9-3.1,5.1-6.2,6.3
	c-1.3,0.5-2.6,0.7-3.9,0.7c-4.7,0-10.4-3.4-11-12.9c-0.1-2.3-0.6-4.4-3.4-5.9c0.7,1.9,1.1,3.9,1.1,5.9c0.1,5.8-2.5,11.3-7.2,15.1
	c-6.3,5-5.6,12.7-2.3,17.8c2.5,3.9,4,7.5,4.6,10.8c0.2,1.4-0.3,2.8-1.4,3.7c-2,1.7-3.1,3.6-2.9,5c0,0,0,0.1,0,0.1
	c0.3,1.8-0.5,3.5-2.1,4.3c-0.2,0.1-0.3,0.2-0.5,0.2c-1.9,0.8-3.8,1.2-5.6,1.2c-3.2,0-6-1.2-8.2-3.6c-1.7-1.9-3-4.3-3.7-7.3
	c-0.9,1.8-1.3,3.6-1.3,5.4c0.1,3.6,2,7,5.8,9.7c5.7,4.3,8.8,8.5,9.2,12.9c0.3,3.1-0.7,6.1-2.9,8.6c-1.7,1.9-4.2,3-6.8,3
	c-2,0-3.9-0.6-5.8-1.7c0,1.3,0.2,2.5,0.7,3.5c1.1,2.2,3.4,3.7,6.8,4.6c4.1,1,7.9,3.5,10.9,7.1c0.1,0.1,0.1,0.2,0.2,0.3l1.8,2.5
	c0.8,1.1,0.9,2.6,0.4,3.9c-0.5,1.3-1.7,2.2-3.1,2.4c-4.1,0.6-6.6,4.8-6.2,10.3c0.7,9.7,14.9,30.7,25.2,34.7c1.1,0.4,1.8,0.5,2.2,0.5
	c0.5,0,0.6-0.1,0.7-0.3c1.1-1.4,1.1-5.7,0.3-8.3c-0.4-1.4-0.1-2.8,0.7-3.9c0.8-1.1,2.1-1.7,3.5-1.7c0.8,0,1.5,0.2,1.8,0.3
	c12.2,4.4,30.3,7.6,41.5,7.5c0,0,0,0,0.1,0c2.1,0,3.9,1.7,4,3.8c0.3,5.8,1.8,6.8,5.3,6.8c4.5,0,7.8-1.9,10-5.7
	c0.8-1.3,2.2-2.1,3.8-2c1.2,0.1,2.4,0.1,3.6,0.1c5.6,0,14.3-0.9,24.3-5.2c2-0.8,4.2,0,5.2,1.9c0.9,1.9,0.2,4.2-1.7,5.3l-1.8,1
	c-12.3,21.6-37.9,37.7-60.2,37.7c-11.5,0-20.6-4.6-25.6-13C274.6,482.3,268.5,479.2,264.4,479.2z M267.8,471.6
	c6.7,1.3,13.4,6.4,17.7,13.6c4.5,7.5,12.6,9.1,18.7,9.1c14.8,0,35.3-9.6,48.2-26.2c-5.6,1.2-10.5,1.6-14.1,1.6c-0.6,0-1.2,0-1.8,0
	c-3.6,4.9-9.1,7.6-15.5,7.6c-7.1,0-11.4-3.6-12.8-10.6c-10.5-0.4-24.3-2.8-35.6-6.2c0,3.1-0.6,6.6-2.5,9.1
	C269.4,470.4,268.7,471.1,267.8,471.6z"/>
<path fill="#72D5EC" d="M331.7,323.5l7.8,26.9L352,439c0,0-24.8,23.1-39.3,23.6c-16.3,0.5-47.1-6.3-55.8-13.6s-12.7-16.1-12.3-22.4
	c0.3-6.3-4.7-17.2-14-19.5c-10.7-2.6-12.7-10.9-8.7-19.8c4,6.6,9.3,6.6,11.7,4c2.3-2.6,4.7-7.9-5.7-15.6
	c-10.3-7.7-9.8-19.6,1.2-28.2c-1,14.1,5.4,19.1,12.6,15.9c7.2-3.1,5.2-11.1,0.5-18.3c-4.7-7.3-4.3-17.2,3.2-23.1
	c7.5-5.9,8-17.3-0.8-23.8c10.2,0.5,16.2,3.2,16.8,11.6c0.5,8.4,5.6,10.2,9.6,8.7c4-1.5,6.5-5.8,0.2-14.4c-6.2-8.7-1.3-17.7,6.2-23.9
	c7.5-6.2,5.2-12.5-2.8-17.4c18.6,0.1,24.5,10.1,23.3,16.8c-1.3,6.7,3,12.5,8,12c5-0.5,14.7-9.2,1.7-21.4
	c14.8,2.9,30.3,16.4,30.8,30.4S331.7,323.5,331.7,323.5z"/>
<path fill="#FFFFFF" d="M253.9,334.8l5-14.5l5.2,5c0,0-1.2-4.4-1-9.3c-0.9-1.4-1.5-3.5-1.7-6.2c-0.5-8.4-6.5-11.1-16.8-11.6
	c3,2.2,4.9,5,5.8,7.9c1.2,2.5,1.3,5.1,0.2,7.8c-0.8,3.1-2.6,6-5.3,8.1c-0.4,0.3-0.8,0.7-1.1,1c-2.5,5.9,0.4,12.1,0.4,12.1
	s1.5-8,6-11.2C249.9,327.8,253.9,334.8,253.9,334.8z"/>
<path fill="#FFFFFF" d="M238.8,368.6c0,0-7.4-2.2-8.2-9.8c-1.1-2.7-1.7-6.5-1.3-11.3c-11,8.7-11.6,20.5-1.2,28.2
	c0.2,0.2,0.4,0.3,0.6,0.5c-0.1-0.6-0.4-1.4-0.9-2.4c5.3,5.5,10,3,10,3s-5-2.5-7.2-9.3C232.9,371.1,238.8,368.6,238.8,368.6z"/>
<path fill="#FFFFFF" d="M273.7,300c-0.9-5.9,0.2-10,4.5-13.1c-2.6,6.6-1.6,13.2,7.6,17.4c-1.2-4.8-3.1-13.9-0.8-17.1
	c0,3.1-0.7,8.8,3.7,14.8c0.7-2.7,1.1-15.3,1.1-18c-0.5,7.5,6.8,10.1,6.8,10.1s-2.3-5.6-0.2-14c0.5-2,0.8-4.1,1-6.2
	c-2.2-5.5-9-10.9-22.6-11c8,5,10.3,11.2,2.8,17.4c-3.5,2.9-6.5,6.5-8,10.3C270.3,294.7,272.4,298.8,273.7,300z"/>
<path fill="#FFFFFF" d="M318.3,294.3c4.3-3.8,2.6-8.5,2.6-8.5s3.7,1.9,5.3,6.8c0.8-6.2,0-9.2-5.3-15.2c-3.9-4.3-7.7-5.4-11.1-5.2
	c6,6.8,5.1,12.3,2.4,15.7c2.2-1.5,3-4.7,3-4.7S318.8,288.3,318.3,294.3z"/>
<path fill="#33B2DA" d="M305.9,300.9c10.3,0,15.6-7.3,13.3-16.9c9.8,6.2,9,17.1,9.4,21.6c0.7,6.8,2.6,22.4,2.6,22.4l9.3,22.7
	l14.3,79.7c0,0-22,22.7-41.7,23.3c-19.7,0.7-33,1-51-14.7s-16-31.3-24-33c0,0-7.3-1.3-8-6.3c5.7,0.7,8.7,0.3,12.7-5
	c5.3-7.1-0.3-14.3-3.7-16.7c-7.3-4-8.8-10.3-8.8-10.3s3.5,5,13.8,3.5c10.3-1.5,14.3-13.5,9.3-20.2c-5-6.7-8-16.7-3.3-22.3
	c4.7-5.7,6.3-9.7,5.3-16.7c1.9,0.8,5.5,7,5.2,11.8c-0.2,4.8,8.4,9.2,16.1,4.2s10.9-8.6,6.6-13.9c-4.3-5.3-8.6-11.7-6.2-18
	c2,3.9,4.8,6.1,7.4,6.8c-2.6-2.6-6.3-15.9,5.9-23c-2.2,4.4-0.3,12.7,4.7,17.6C297.8,299.6,303,300.9,305.9,300.9z"/>
<path fill="#231815" d="M310.8,464.5c-16.9,0-46.3-6.6-55.1-14.1c-8.4-7.1-13.4-16.3-13-23.9c0.3-5.8-4.4-15.6-12.6-17.6
	c-5.2-1.3-8.9-3.9-10.7-7.7c-2-4.1-1.7-9.1,0.8-14.7c0.3-0.6,0.9-1,1.6-1.1c0.7,0,1.3,0.3,1.7,0.9c1.8,3,4.1,4.7,6.3,4.7
	c1,0,1.8-0.4,2.4-1c1.2-1.3,1.7-2.7,1.5-4.1c-0.3-2.6-2.7-5.6-6.9-8.8c-5.2-3.8-8.1-8.9-8.1-14.3c-0.1-6,3.2-12,9.3-16.8
	c0.6-0.4,1.4-0.5,2-0.2c0.6,0.3,1,1,1,1.8c-0.4,6.1,0.6,10.7,2.8,13.1c1.8,1.9,4.3,2.2,7.2,1c1.8-0.8,2.9-1.9,3.3-3.4
	c0.9-2.9-0.4-7.2-3.7-12.2c-4.8-7.5-5.1-18.7,3.6-25.5c3.3-2.6,5.1-6.4,5-10.4c-0.1-4.1-2.1-7.8-5.7-10.5c-0.7-0.5-0.9-1.3-0.6-2.1
	c0.3-0.8,1-1.3,1.8-1.2c15.7,0.8,18.2,7.5,18.5,13.4c0.3,4.7,2.2,7.5,5.2,7.5c0.6,0,1.3-0.1,1.9-0.4c1.4-0.5,2.3-1.4,2.7-2.5
	c0.6-2.1-0.5-5.3-3.3-9.1c-5.9-8.2-3.5-18.1,6.5-26.4c2.7-2.3,4-4.5,3.9-6.7c-0.2-2.6-2.4-5.3-6.5-7.8c-0.7-0.4-1-1.3-0.8-2.1
	c0.2-0.8,0.9-1.3,1.8-1.3c0,0,0,0,0,0c12.6,0.1,18.9,4.4,21.9,8.1c2.7,3.2,3.8,7.2,3.1,10.8c-0.5,2.9,0.1,5.9,1.8,7.8
	c1.2,1.4,2.7,2.1,4.2,2c1.9-0.2,5-2.2,6.1-5.4c1.3-3.8-0.6-8.3-5.5-12.9c-0.6-0.6-0.8-1.5-0.4-2.2c0.4-0.7,1.2-1.1,2-1
	c14.8,2.9,31.8,16.9,32.3,32.2c0.4,12-4.5,20.3-6.4,23.1l15,27.9c0,0.1,0.1,0.2,0.1,0.3l28.8,80.7c0.3,0.8,0,1.7-0.8,2.2
	c-2,1.2-49.3,29.2-64.1,29.7C312.1,464.5,311.5,464.5,310.8,464.5z M222.5,391.2c-0.9,3.3-0.8,6.2,0.3,8.5c1.3,2.8,4.1,4.7,8.2,5.7
	c10.1,2.5,15.8,14.1,15.4,21.4c-0.3,4.8,2.6,13.2,11.7,20.9c8.3,7.1,38.7,13.7,54.5,13.2c12.6-0.4,53.2-23.9,61.1-28.4l-28.2-79.1
	L330,324.3c-0.3-0.7-0.3-1.5,0.2-2c0.1-0.1,6.8-8.6,6.3-21.7c-0.3-9.6-9.8-22-23.6-27.1c3.4,5,3.3,9.1,2.3,12
	c-1.6,4.7-5.9,7.5-9.2,7.8c-2.8,0.3-5.5-0.9-7.4-3.3c-2.3-2.8-3.3-6.9-2.6-10.9c0.5-2.6-0.4-5.4-2.3-7.8c-2.7-3.3-7.3-5.5-13.3-6.4
	c2.1,2.2,3.2,4.5,3.4,6.8c0.2,3.4-1.5,6.7-5.2,9.7c-4,3.3-12.6,12-5.9,21.4c3.5,4.9,4.8,9,3.8,12.3c-0.7,2.2-2.4,4-4.9,4.9
	c-1.1,0.4-2.1,0.6-3.2,0.6c-4,0-8.4-2.9-8.9-10.9c-0.3-5.4-3.2-8.3-9.9-9.4c2.1,2.8,3.2,6,3.3,9.5c0.1,5.2-2.2,10-6.4,13.3
	c-7,5.5-6.7,14.6-2.8,20.7c2.7,4.2,5.6,10.3,4.1,15.3c-0.8,2.6-2.6,4.5-5.4,5.7c-4.3,1.9-8.5,1.2-11.4-1.9
	c-2.3-2.5-3.7-6.5-3.9-11.5c-3.2,3.4-4.9,7.3-4.9,11.1c0.1,4.3,2.4,8.3,6.6,11.4c5.2,3.8,8,7.7,8.4,11.3c0.3,2.5-0.6,4.8-2.4,6.9
	c-1.3,1.4-3.2,2.3-5.2,2.3C227.2,394.8,224.6,393.5,222.5,391.2z"/>
<path fill="#00709C" d="M321.6,360.9l2.3-27.7l-37.8-8.2c-3.9,9.1-16.9,14.3-21.2,13.5c-7.7-1.3-9-8.3-7.7-11
	c-5.7,7.3-2.7,16.7,3.7,20.7s5.8,17.4-3.2,23.2c-9,5.8-15.2,4.8-17.2,3.5c9.2,7,8.1,14.3,6.3,19.7c-1.8,5.4-8.9,7.6-8.9,7.6
	s10.1,2.6,10,10.5c0,7.9,11.2,32.5,40.1,35c28.9,2.5,38.2-13.1,38.2-13.1L321.6,360.9z"/>
<path fill="#00709C" d="M336.6,392.6c0-27.1-20-48.9-46.1-49.3c-4.9,3.6-10.4,6.1-16.8,2.8c-0.3,0.1,1.8,0.6,1.6,0.8
	c-19,14.3-25,28.1-25,46.7c0,18.7,1.3,25.5,6.3,34.7c8.6,8.6,20.3,13.8,33.2,13.8C316.2,442.3,336.6,419.9,336.6,392.6z"/>
<path fill="#00709C" d="M333.2,358.1c2.5,4.2-5.2,6.5-0.2,12s-11-11-11-11L333.2,358.1z"/>
<path fill="#FFFFFF" d="M289.4,349.6c-32.7,2.7-53.9,51.9-25,77.7c29.3,26.1,65.5-7.6,64.2-38.9
	C327.7,364.1,307.6,348.8,289.4,349.6 M259.4,372.3c9.9-15.3,29-27.8,49.8-12.5c-0.1,0-13.4,0.6-3.8,14.8c5.2,7.7,5.5,13.9,1.4,26.4
	c-1.5,6.2-1.9,8.1-3.3,14.4c-6.3-15.2-11.5-28.1-15.6-44.6c3.6-0.5,7.7-1.1,5.6-3.4c-0.3-0.3-19.2,1.6-19.4,1.6
	c-1.5,0.2-1.7,2-1.7,2c-0.1,1.3,0.1,1.3,4.2,1.1c1.1,5.8,1.6,8.5,4.3,17c-1.9,8-3.9,16.3-4.2,29.2c-8.6-17.2-12.1-29.1-12.8-44.1
	c1.2-0.7,2.9-0.5,3.9-1.6c0.7-0.8,1.1-2.5,0.2-2.7C264.8,369.3,262.3,371.6,259.4,372.3 M304.8,425.9c3.5-15.1,9.3-29.5,12.7-44.5
	c0.7-2.9,1.2-7.5,0.2-12.5C327.9,384.7,326.7,409.4,304.8,425.9 M275,430.3c-22-10-26.1-33.7-18.7-52
	C256.6,396.4,261.6,410.5,275,430.3 M287.9,432.4c-2.8,0.2-5.1,0-7.9-0.6c-0.8-8.4-1.4-18.9,2.9-37.2c7.7,19.9,16.2,34.6,16.2,34.6
	C297.6,430,293.3,432.1,287.9,432.4"/>
<g>
	<path fill="#FF8800" d="M271.8,340.5c-16.1,4.5-17.8-2.9-14-3.7c3.7-0.8,13.6-6.6,18.6-11.6L271.8,340.5z"/>
	<path fill="#231815" d="M262.8,344.5c-6.4,0-8.9-2.8-9.2-5.4c-0.2-2.2,1.3-4.2,3.6-4.7c3.1-0.7,12.7-6.2,17.4-10.9l7-7l-7.8,26
		l-1.3,0.4C268.8,344,265.6,344.5,262.8,344.5z M259.4,339c0.7,0.3,1.8,0.5,3.5,0.5c2,0,4.3-0.3,7-1l1.9-6.2
		C267.3,335.3,262.4,338,259.4,339z"/>
</g>
<g>
	<path fill="#FF8800" d="M377.2,452.9c-7,26.9-34.7,52.5-66.1,59.9c-27,6.4-57-14.5-56.6-27.3c0.5-14.4,18.6-13.6,27.7,1.6
		c13.9,23.4,61.6,7,79.3-25.6L377.2,452.9z"/>
	<path fill="#231815" d="M300.6,516.5c-17.3,0-33.5-8.7-41.8-17.3c-4.6-4.8-7-9.5-6.9-13.8c0.3-7.8,5.1-12.8,12.4-12.8
		c7.3,0,15.1,5.2,19.9,13.2c4.8,8.1,13.5,9.8,20,9.8c0,0,0,0,0,0c17.6,0,43-13.2,55-35.3l0.3-0.6l21.4-11.9l-1.5,5.6
		c-7.4,28.2-36,54.1-68,61.7C308.1,516.1,304.4,516.5,300.6,516.5z M264.4,477.7c-4.5,0-7.2,2.9-7.4,7.9c-0.1,2.8,1.9,6.5,5.5,10.1
		c7.6,7.8,22.3,15.7,38.2,15.7c3.4,0,6.7-0.4,9.9-1.1c28.1-6.6,53.3-28.1,62.4-52.3l-9.6,5.3c-11.9,21.3-37.2,37.3-59.1,37.3
		c0,0,0,0,0,0c-11,0-19.6-4.4-24.3-12.2C275.3,480.6,268.6,477.7,264.4,477.7z"/>
</g>
<path fill="#57A1BE" d="M275,345.4c-0.2,0.1-0.4,0.3-0.5,0.4c0.3-0.1,0.5-0.2,0.8-0.3C275.1,345.5,275,345.5,275,345.4z"/>
<path fill="#57A1BE" d="M293.1,342.6c-0.3,0-0.6,0-0.8,0c-6,0-11.7,1-17.1,2.9C282,348.9,287.9,346.3,293.1,342.6z"/>
<g>
	<path fill="#FFD200" d="M346.4,345.8L335,334.4c-10.3,3.3-22.3,6.2-33.1-0.4c-4.5,8.3-15.5,13.1-22.1,12.7
		c-6.6-0.4-11.6-8.5-3.6-21.3c12-19,34.7-31,62-30.2c27.3,0.8,47.1,19,56.6,45.9c9.5,26.9,12.5,91.2-17.8,112
		c-16.8,11.5-33.3,13.4-43.4,12.5l2.6-32.6c6.5-15,18.5-18.2,31.2-17.5c-2.3-10.7,0-33,0-33L346.4,345.8z"/>
	<path fill="#231815" d="M338.3,467.6c-1.6,0-3.2-0.1-4.7-0.2c-1.1-0.1-1.9-1.1-1.8-2.2l2.6-32.6c0-0.2,0.1-0.4,0.2-0.6
		c5.5-12.7,15.4-18.8,30-18.8c0.2,0,0.4,0,0.6,0c-1.5-10.4,0-26.9,0.3-30.5l-20.7-35.6l-10.3-10.4c-5.6,1.8-11.6,3.3-17.8,3.3
		c-5.2,0-9.8-1.1-14-3.3c-5.3,7.8-16,12.4-22.9,12c-3.6-0.2-6.6-2.2-8.3-5.4c-1.5-2.9-3-9.2,3.2-19c12.3-19.5,35.1-31.1,61-31.1
		c0.9,0,1.8,0,2.7,0c26.8,0.8,48.1,18,58.4,47.2c4.5,12.6,8.1,35.8,6.1,59.1c-2.8,33.5-15,48.5-24.6,55.2
		C361.8,465.9,346.2,467.6,338.3,467.6z M335.9,463.6c0.8,0,1.6,0.1,2.4,0.1c7.4,0,22.1-1.6,37.7-12.3c29-20,26.5-82.9,17-109.7
		c-9.8-27.5-29.7-43.8-54.8-44.5c-0.9,0-1.7,0-2.6,0c-24.6,0-46.1,10.9-57.7,29.3c-3.7,5.9-4.8,11.4-3,15c1,2,2.8,3.1,5,3.3
		c0.2,0,0.4,0,0.7,0c6.3,0,15.7-4.7,19.5-11.6c0.3-0.5,0.7-0.8,1.2-1c0.5-0.1,1.1-0.1,1.6,0.2c4,2.5,8.5,3.7,13.6,3.7
		c6.1,0,12.1-1.7,17.8-3.5c0.7-0.2,1.5,0,2,0.5l11.4,11.5c0.1,0.1,0.2,0.3,0.3,0.4l21.2,36.4c0.2,0.4,0.3,0.8,0.3,1.2
		c0,0.2-2.3,22.1,0,32.4c0.1,0.6,0,1.2-0.4,1.7c-0.4,0.5-1,0.7-1.6,0.7c-1-0.1-2-0.1-2.9-0.1c-13,0-21.3,5.1-26.2,16.1L335.9,463.6z
		"/>
</g>
<path d="M337.1,433.7c-0.3,0-0.6-0.1-0.8-0.2c-0.9-0.5-1.3-1.6-0.9-2.5c5-10.2,14.4-16.7,25.8-17.8c9.4-1,18.8,2,22.8,7.2
	c0.6,0.8,0.5,2-0.3,2.6c-0.8,0.6-2,0.5-2.6-0.3c-3.2-4.2-11.4-6.6-19.5-5.8c-5.9,0.6-16.8,3.5-22.8,15.8
	C338.4,433.3,337.8,433.7,337.1,433.7z"/>
<g>
	<path fill="#FF8800" d="M370.6,306.7c-7.4-0.6-1.7,5,0.8,7c2.5,2.1,20.2,18.2,36.8,13.2c16.5-5,21.5-18.6,18.2-19.4
		C423,306.7,385.9,307.9,370.6,306.7z"/>
	<path fill="#231815" d="M401.6,330.4C401.6,330.4,401.6,330.4,401.6,330.4c-6.6,0-17.4-2.5-31.3-14.4l-0.5-0.4
		c-6.4-5.4-5.5-8-5.2-8.9c0.4-1.2,1.6-2.6,4.9-2.6c0.4,0,0.8,0,1.2,0.1c6.4,0.5,16.9,0.6,24.2,0.6c4,0,8,0,11.7,0c3.3,0,6.4,0,9.1,0
		c8,0,10.2,0.1,11.1,0.4c1.3,0.3,2.8,1.6,2.9,4c0.1,4.8-5.9,15.7-20.9,20.2C406.6,330,404.1,330.4,401.6,330.4z M370.3,309.1
		c0.6,0.7,1.5,1.6,2.7,2.6l0.5,0.4c12.8,10.9,22.3,13.2,28.1,13.2c0,0,0,0,0,0c2,0,4-0.3,5.9-0.8c11.9-3.6,16.8-11.8,17.3-14.7
		c-1.2-0.1-3.8-0.1-9-0.1c-2.7,0-5.8,0-9.1,0c-3.7,0-7.7,0-11.7,0C387.6,309.8,377,309.7,370.3,309.1
		C370.3,309.2,370.3,309.1,370.3,309.1z"/>
</g>
<path d="M298.7,323.2c-3,2.2-2.1,5,1.2,5.4c3.3,0.4,3.6,0.6,6.6-1.7c3.3-2.5,3.7-6.6,0-6.2C302.8,321.1,300.3,322,298.7,323.2z"/>
<path d="M290,324.8c0,2.1-1.7,3.7-3.7,3.7c-2.1,0-3.7-1.7-3.7-3.7c0-2,1.7-3.7,3.7-3.7C288.3,321.1,290,322.8,290,324.8z"/>
<path d="M333,314.5c0,2.1-1.7,3.7-3.7,3.7c-2.1,0-3.7-1.7-3.7-3.7c0-2,1.7-3.7,3.7-3.7C331.3,310.8,333,312.5,333,314.5z"/>
<g>
	<path fill="#FFD200" d="M255.2,351.2c-4.1-1.6-14.5,5.4-13.2,12c1.2,6.6,8.7,6.6,13.6,1.6C260.6,359.9,259.2,352.8,255.2,351.2z"/>
	<path d="M248,370.4L248,370.4c-4.1,0-7.2-2.6-8-6.8c-0.5-2.7,0.5-5.8,2.7-8.5c2.9-3.5,7.6-6.1,11-6.1c0.8,0,1.5,0.1,2.2,0.4
		c2.3,0.9,4.1,3.2,4.6,6c0.8,3.8-0.5,7.9-3.6,10.9C254.4,368.9,251.1,370.4,248,370.4z M253.8,353c-2,0-5.6,1.8-8,4.7
		c-0.9,1-2.3,3.1-1.9,5.2c0.5,2.9,2.5,3.6,4,3.6c2.1,0,4.4-1.1,6.2-2.9c2.1-2.1,3-4.8,2.5-7.3c-0.3-1.5-1.1-2.7-2.2-3.1
		C254.4,353.1,254.2,353,253.8,353z"/>
</g>
<path fill="#72D5EC" d="M354.4,286.1c6.5,8.5,4.5,13.2-4.8,17.8c-9.3,4.7-9,13-7,19.3c2,6.3-6.7,11.2-13.6,12.7s7,4.7,19.5,5.7
	s18.5-0.7,26.2-6.2c7.7-5.5,8-15.5,3-22.5c-0.7,7.3-4.9,9-9,7.7c-4.1-1.3-3.7-7-1.2-12C369.9,303.6,372.3,289.9,354.4,286.1z"/>
<path fill="#FFFFFF" d="M355.4,287.1c3.8,6.8,5.7,13-2.5,17s-6.3,9.2-6.3,9.2s1.3-4.3,7.3-5.5c6-1.2,7.8-3.5,7.8-3.5
	s0.8,7.8-3.8,12.3c6.3-1.8,10.2-9,10.5-15.2c0.3-6.2-1-9.8-5.3-12.2C358.8,286.9,355.4,287.1,355.4,287.1z"/>
<path fill="#33B2DA" d="M340.9,338.3c11.3-2,9.7-9,8-15.3c-1.7-6.3,2-11,6.3-13c4.3-2,6.3-3.3,6.3-6c2,4-0.3,8.7-3.7,12.7
	c-3.3,4-2.3,10.7,4,13c6.3,2.3,12-1.7,13-4.7c-0.7,6.7,0,10.3-9.3,14.3c-9.3,4-13.7,1.7-18.3,1.7
	C342.6,340.9,340.9,338.3,340.9,338.3z"/>
<path fill="#231815" d="M354.6,343.7c-1.9,0-4-0.1-6.3-0.3c-5.1-0.4-10.4-1.2-14.7-2.1c-6.9-1.5-8.3-2.7-8.4-4.3
	c-0.1-2.2,2.5-2.7,3.3-2.9c4.4-0.9,9.9-3.4,11.8-6.8c0.7-1.2,0.8-2.3,0.4-3.5c-3.1-9.8-0.3-17.4,7.9-21.5c4.6-2.3,7-4.4,7.5-6.7
	c0.5-2.1-0.6-4.9-3.3-8.4c-0.5-0.6-0.5-1.5-0.1-2.1c0.4-0.7,1.2-1,1.9-0.8c7.4,1.6,12.3,4.9,14.7,9.9c2.6,5.5,1.4,11.6-0.4,15.2
	c-1.6,3.1-2.1,6.3-1.4,8.1c0.3,0.7,0.8,1.1,1.5,1.4c0.7,0.2,1.3,0.3,1.9,0.3c3.4,0,4.4-3.5,4.7-6.4c0.1-0.8,0.6-1.4,1.4-1.6
	c0.7-0.2,1.5,0.1,2,0.7c5.3,7.4,5.4,18.7-3.4,25.1C368.6,341.9,363.1,343.7,354.6,343.7z M331.6,337.1c3.6,1,9.9,2.1,16.9,2.6
	c2.3,0.2,4.2,0.3,6,0.3c7.8,0,12.5-1.5,18.9-6.1c4.5-3.2,7.1-9.5,4.7-16c-1.1,2.5-3.2,4.9-7.1,4.9c-1,0-2-0.2-3.1-0.5
	c-1.8-0.6-3.1-1.8-3.8-3.4c-1.2-2.8-0.6-6.9,1.5-11.1c1.2-2.3,2.6-7.5,0.4-12c-1.4-2.8-3.9-5-7.5-6.5c1.3,2.7,1.7,5,1.2,7.2
	c-0.8,3.4-3.7,6.3-9.4,9.1c-6.6,3.3-8.7,9.1-6.1,17.1c0.7,2.2,0.4,4.4-0.8,6.5C341.3,333.1,336.1,335.8,331.6,337.1z"/>
<g>
	<path fill="#FFD200" d="M338.4,336.8c-8.8-1.5-19.8-0.2-27,4.5c-7.3,4.8-7.5,12-5,14.5s8.5,2.8,15,1.8s16.8-1.5,26,2.5
		c9.2,4,15.5-6.8,11.2-12.8S347.2,338.3,338.4,336.8z"/>
	<path fill="#231815" d="M351.4,363C351.4,363,351.4,363,351.4,363c-1.6,0-3.2-0.3-4.7-1c-4.7-2-10.1-3-16.2-3
		c-2.9,0-5.8,0.2-8.7,0.7c-2.5,0.4-4.8,0.6-6.8,0.6c-4.6,0-8-1-9.9-2.9c-1.5-1.5-2.2-4-2-6.7c0.4-4.2,3.1-8.1,7.3-10.9
		c5.3-3.4,12.9-5.4,20.8-5.4c2.6,0,5.2,0.2,7.6,0.6c10.4,1.8,17.4,5.5,21.5,11.3c2.2,3,2.3,7.2,0.4,10.9
		C358.8,360.7,355.3,363,351.4,363z M330.5,354.9c6.6,0,12.6,1.1,17.8,3.4c1.1,0.5,2.1,0.7,3.2,0.7c2.4,0,4.6-1.4,5.8-3.8
		c1.2-2.3,1.1-4.9-0.1-6.7c-3.5-4.9-9.7-8.1-19-9.7c-2.2-0.4-4.5-0.6-6.9-0.6c-7.2,0-14,1.7-18.6,4.8c-3.2,2.1-5.2,5-5.5,7.9
		c-0.2,1.8,0.3,3,0.8,3.5c0.6,0.6,2.4,1.7,7.1,1.7c1.9,0,4-0.2,6.2-0.5C324.3,355.1,327.4,354.9,330.5,354.9z"/>
</g>
<path fill="#72D5EC" d="M347.9,427.6c0,0,3,4.3,14.3-1c4.8-2.3,14-6.3,12.8-12.3s4.3-12.3,10.4-14.8c10.6-4.4,11-13.8,5-23.9
	c0,10.4-8.3,12.7-12.2,9.9c-3.8-2.7-5.8-8.2,1.9-13.2c7.7-5,8-15.6,3.7-21c-5.2-6.5-7.7-16,0.9-20.3c-11.9-3.7-15.4,5.1-14.8,10.5
	c0.6,5.4-1.3,8.7-6.9,8.1c-5.6-0.5-8-8.7-2.5-15.5c-10.6,0.2-13.7,8.5-11.3,15.9c2.4,7.5-3.6,9.5-10.3,7.7L347.9,427.6z"/>
<path fill="#FFFFFF" d="M358.6,334.9c-8,1.7-10.7,7.7-9.3,13.7c1.3,6,5.4,5.9,5.4,5.9s-2.3-4.1-0.8-7.9c1.6,3.4,3.8,4.7,6.6,5.4
	c-0.8-0.5-3.7-3.4-3.8-7.2C356.4,340.9,358.6,334.9,358.6,334.9z"/>
<path fill="#FFFFFF" d="M382.4,330.6c-8-1.2-11.3,4.8-10.7,11.8c0.3,2.6,0.3,6.8-3,10.8c2.3,0,5.7-1.8,6-4.2c1,1.4,1.4,6.6,1.5,8.7
	c2.6-2.6,2.1-7.4,1.4-9.5c2.5,3.5,2.9,5.7,2.9,5.7s2.2-3.2-0.4-8.1C377.5,341,382.4,330.6,382.4,330.6z"/>
<path fill="#33B2DA" d="M376.9,366.3c-7.3,7.7-13.7,13-9.7,21.3c4,8.3,13.3,6.3,13.3,6.3s-9.3,4.3-10.3,12.3s3,10.7-2,18.7
	s-32.8,6.1-32.8,6.1s3.9-68.4,3.3-73.1c2.3,4.3,5.5,7.2,11.2,6.3c5.7-0.8,10-8,6-12.3c6.3,3.6,6.2,7.6,5.5,9.9
	c-0.7,2.3,1.4,4.3,3.4,4.5s5.2-1.6,3.9-4.8c-1.3-3.2,1.3-5.7,3.1-7.1c1.5-1.2,3-3.5,2.9-5.7c2.2,3.2,2.9,8.8,0.3,12
	c5-1.1,5.3-5.3,5.3-5.3S383.2,362.4,376.9,366.3z"/>
<path fill="#221714" d="M352.6,430.8c-4.3,0-6-2.1-6.2-2.5l3-2.1c0,0,0,0,0,0c0,0,2.7,2.8,12-1.6l0.5-0.2c4.2-2,12.1-5.7,11.3-10
	c-1.4-7,4.8-14.1,11.5-16.9c3.8-1.6,6.3-3.9,7.3-6.9c0.9-2.6,0.6-5.8-0.7-9.4c-1,2.6-2.7,4.7-5.1,5.9c-3,1.6-6.6,1.4-9-0.4
	c-2.7-1.9-4.2-4.6-4.1-7.5c0-2.2,1.1-5.6,6.1-8.8c2.9-1.9,4.9-5,5.4-8.6c0.6-3.6-0.3-7.3-2.2-9.7c-4-5-5.8-10.8-4.8-15.3
	c0.4-2,1.4-3.7,2.8-5.2c-2.3-0.2-4.2,0.4-5.7,1.6c-2.3,1.9-3.1,5.3-2.8,7.8c0.4,3.7-0.3,6.4-2,8.2c-1.6,1.6-3.9,2.3-7,2
	c-2.9-0.3-5.3-2.1-6.5-5c-1.3-3-1-6.6,0.5-10c-2.1,0.6-3.8,1.7-4.9,3.3c-1.8,2.5-2.1,6.1-1,9.7c1.4,4.4,0.2,7-1.2,8.4
	c-2.3,2.4-6.3,3.3-11.2,2c-1-0.3-1.8-1.6-1.5-2.6c0.3-1,1.3-1.6,2.3-1.3c3.4,0.9,6.5,0.7,7.8-0.6c1.1-1.2,0.8-3.2,0.3-4.7
	c-1.5-4.8-1-9.5,1.5-13c1.7-2.4,5-5.2,11.5-5.4c0.8,0,1.4,0.4,1.7,1c0.3,0.6,0.2,1.4-0.2,2c-3.1,3.8-3.1,7.6-2.2,9.7
	c0.4,0.9,1.4,2.5,3.4,2.7c1.9,0.2,3.2-0.1,4-0.9c1.1-1.2,1.1-3.5,0.9-5.2c-0.4-3.2,0.5-8,4.1-11c2.2-1.8,6.3-3.6,13-1.5
	c0.7,0.2,1.2,0.9,1.3,1.6c0.1,0.7-0.3,1.5-1,1.8c-2.5,1.2-4,3-4.5,5.3c-0.8,3.4,0.8,8.1,4.1,12.3c2.6,3.3,3.7,8,3,12.6
	c-0.7,4.7-3.3,8.6-7.1,11.1c-2.8,1.9-4.4,3.9-4.4,5.8c0,2.2,1.8,3.8,2.6,4.4c1.3,1,3.4,1,5.2,0.1c1.5-0.8,4.1-2.9,4.1-8.5
	c0-0.8,0.6-1.6,1.4-1.8c0.8-0.2,1.6,0.1,2.1,0.8c3.9,6.5,5.1,12.5,3.4,17.4c-1.3,4-4.5,7.1-9.4,9.1c-5.3,2.2-10.3,7.7-9.3,12.8
	c1.4,7.1-7.8,11.5-13.3,14L363,428C358.5,430.1,355.1,430.8,352.6,430.8z"/>
<path fill="#00709C" d="M327.4,363.1c6.2,9.5,9.7,9.5,16.3,9.8c6.7,0.3,13-4.3,13.3-6.7c3,7.3,0.8,14-7.3,18c-8.2,4-9,12-5.5,15.3
	c3.5,3.3,12.8,3,13.5-7.3c4,14-3.5,28-15.5,36s-27.3,18-38.3,19c15.7-13.3,26.7-31.7,28-43c1.3-11.3-7.7-37-7.7-37L327.4,363.1z"/>
<g>
	<path fill="#FFD200" d="M382.7,421.8c-12.5-14.2-39-5.5-49.2,9.8l2.5,13"/>
	<path d="M335.9,446.6c-0.9,0-1.8-0.7-2-1.6l-2.5-13c-0.1-0.5,0-1.1,0.3-1.5c6.5-9.7,19.5-17,31.5-17.8c8.6-0.6,16,2.2,20.9,7.8
		c0.7,0.8,0.6,2.1-0.2,2.8c-0.8,0.7-2.1,0.6-2.8-0.2c-5.2-6-12.5-6.8-17.6-6.5c-10.6,0.7-22,7-28,15.4l2.3,12.2
		c0.2,1.1-0.5,2.1-1.6,2.3C336.2,446.6,336,446.6,335.9,446.6z"/>
</g>
<g>
	<path fill="#FFD200" d="M336.7,459.3c0,0-2,13.8-15.7,13.8c-13.6,0-7.8-16.5-9.5-27.3c-1.6-10.7-8.3-24.8,1.7-31.4
		c9.9-6.6,20.5,10.2,22.5,17.6C338.6,442,339.2,451.5,336.7,459.3z"/>
	<path d="M321,475.2c-3.5,0-6.2-1-8.1-2.9c-3.6-3.8-3.4-10.3-3.2-16.6c0.1-3.3,0.2-6.6-0.2-9.4c-0.4-2.3-0.9-4.7-1.6-7.3
		c-2.3-9.4-4.8-20.1,4.1-26.1c1.8-1.2,3.8-1.8,5.9-1.8c10,0,18,14.5,19.7,20.6c3.1,10.6,3.5,20.4,1,28.2
		C337.8,465.2,333,475.2,321,475.2z M317.9,415c-1.3,0-2.5,0.4-3.6,1.2c-6.6,4.4-4.5,12.8-2.4,21.8c0.6,2.5,1.2,5.2,1.6,7.6
		c0.5,3.2,0.4,6.7,0.3,10.2c-0.2,5.5-0.4,11.2,2.1,13.7c1.1,1.1,2.8,1.7,5.2,1.7c11.7,0,13.6-11.6,13.7-12.1l0.1-0.3
		c2.2-7.1,1.9-16.1-1-26.1C332,426.4,324.7,415,317.9,415z"/>
</g>
<g>
	<path fill="#FFD200" d="M253,420.2c-9.5-9.9-22.3-3.7-21.4,9.9c0.8,11.1,15.7,33.4,27.7,38.1c10.5,4.1,9.8-8.5,8.6-12.8
		C265.8,447.7,258,425.4,253,420.2z"/>
	<path d="M263,471.1C263,471.1,263,471.1,263,471.1c-1.3,0-2.9-0.3-4.5-0.9c-12.8-5-28.3-28.1-29.1-40c-0.4-5.1,1.1-9.7,4-12.9
		c2.5-2.6,5.8-4.1,9.4-4.1c4.1,0,8.3,2,11.7,5.5c5.8,6,13.8,30.1,15.5,36.1c0.7,2.4,1.7,9.6-1.4,13.6
		C267.3,470.2,265.3,471.1,263,471.1z M242.8,417.5c-2.4,0-4.6,1-6.2,2.7c-2.1,2.3-3.2,5.7-2.9,9.7c0.7,10.3,15.3,31.9,26.4,36.3
		c1.1,0.4,2.1,0.7,2.9,0.7c1,0,1.6-0.3,2.2-1c1.6-2.1,1.4-7.1,0.7-9.9c-2.2-8.1-9.8-29.5-14.4-34.2
		C248.8,419,245.8,417.5,242.8,417.5z"/>
</g>
</svg>
